<?xml version="1.0" encoding="UTF-8" standalone="no"?>
<!DOCTYPE svg PUBLIC "-//W3C//DTD SVG 1.1//EN" "http://www.w3.org/Graphics/SVG/1.1/DTD/svg11.dtd">
<svg version="1.1" xmlns="http://www.w3.org/2000/svg" xmlns:xlink="http://www.w3.org/1999/xlink" preserveAspectRatio="xMidYMid meet" viewBox="0 0 504 102" width="504" height="102"><defs><path d="M5.96 84.26L25.46 17.26L60.96 8.76L92.46 17.26L107.46 36.26L85.46 56.26L111.96 70.76L114.96 85.76L89.96 85.76L78.96 67.76L60.96 60.76L77.46 43.76L71.96 32.26L39.46 28.26L43.96 84.26L5.96 84.26Z" id="a3CJhR8fR"></path><radialGradient id="gradientbuABfDd8i" gradientUnits="userSpaceOnUse" cx="60.46" cy="8.76" r="77"><stop style="stop-color: #090798;stop-opacity: 1" offset="0%"></stop><stop style="stop-color: #780000;stop-opacity: 1" offset="100%"></stop></radialGradient><path d="M258.29 90.37L257.45 65.41L267.45 65.41L276.72 66.23L277.83 49.69L275.94 50.26L257.45 52.35L254.95 37.73L276.72 37.73L275.94 30.22L228.12 28.78C228.12 45.84 228.12 57.21 228.12 62.9C228.12 68.58 228.12 68.58 228.12 62.9C228.12 63.84 228.12 64.51 228.12 64.9C228.12 64.9 228.12 64.9 228.12 64.9C228.12 65.29 228.12 65.4 228.12 65.23C228.12 65.58 228.12 65.92 228.12 66.23C228.12 66.72 228.12 67.16 228.12 67.57C228.12 68.61 228.12 69.39 228.12 69.9C228.12 70.73 228.12 70.84 228.12 70.23L228.12 91.37L258.29 90.37Z" id="eC2GBvFw3"></path><radialGradient id="gradientjqRJF6YVT" gradientUnits="userSpaceOnUse" cx="252.97" cy="28.78" r="62.59"><stop style="stop-color: #177d06;stop-opacity: 1" offset="0%"></stop><stop style="stop-color: #101868;stop-opacity: 1" offset="100%"></stop></radialGradient><path d="M417.42 19.86L417.42 33.36L388.42 35.36L388.42 45.36L421.42 45.36L421.42 55.85L386.92 56.86L386.92 67.86L425.42 70.86L428.42 87.6L374.42 87.6L369.42 22.36L417.42 19.86Z" id="a1k7dAPmRM"></path><radialGradient id="gradienteazdOo2qk" gradientUnits="userSpaceOnUse" cx="398.92" cy="19.86" r="67.74"><stop style="stop-color: #ffffff;stop-opacity: 1" offset="0%"></stop><stop style="stop-color: #12777a;stop-opacity: 1" offset="100%"></stop></radialGradient><path d="M458.91 22.84L455.41 66.6L501.41 66.6L499.41 87.6L433.41 87.6L429.91 22.84L458.91 22.84Z" id="a29NQVm1yp"></path><linearGradient id="gradienta2QYKMwlr1" gradientUnits="userSpaceOnUse" x1="465.66" y1="22.84" x2="465.66" y2="87.6"><stop style="stop-color: #ef6403;stop-opacity: 1" offset="0%"></stop><stop style="stop-color: #7a1276;stop-opacity: 1" offset="100%"></stop></linearGradient><path d="M196.81 87.76L179.31 71.48L154.31 71.48L143.81 87.76L119.31 87.76L171.81 32.4L218.81 87.76L196.81 87.76ZM173.14 60.08L169.85 50.27L164.99 59.71L173.14 60.08Z" id="a1d7LkWbb6"></path><radialGradient id="gradientbTawVlsP7" gradientUnits="userSpaceOnUse" cx="169.06" cy="32.4" r="55.36"><stop style="stop-color: #da0909;stop-opacity: 1" offset="0%"></stop><stop style="stop-color: #010000;stop-opacity: 1" offset="100%"></stop></radialGradient><path d="M343.34 91.37L325.84 76.37L300.84 76.37L290.34 91.37L265.84 91.37L318.34 40.37L365.34 91.37L343.34 91.37ZM321.41 64.03L317.61 55.17L313.26 64.1L321.41 64.03Z" id="d3rNe0X7YK"></path><radialGradient id="gradienti3fLzwCuH6" gradientUnits="userSpaceOnUse" cx="317.59" cy="49.72" r="19"><stop style="stop-color: #ffffff;stop-opacity: 1" offset="0%"></stop><stop style="stop-color: #4c04c9;stop-opacity: 1" offset="100%"></stop></radialGradient></defs><g><g><g><use xlink:href="#a3CJhR8fR" opacity="1" fill="url(#gradientbuABfDd8i)"></use><g><use xlink:href="#a3CJhR8fR" opacity="1" fill-opacity="0" stroke="#fcfeff" stroke-width="3" stroke-opacity="1"></use></g></g><g><use xlink:href="#eC2GBvFw3" opacity="1" fill="url(#gradientjqRJF6YVT)"></use><g><use xlink:href="#eC2GBvFw3" opacity="1" fill-opacity="0" stroke="#f6f6f6" stroke-width="3" stroke-opacity="1"></use></g></g><g><use xlink:href="#a1k7dAPmRM" opacity="1" fill="url(#gradienteazdOo2qk)"></use><g><use xlink:href="#a1k7dAPmRM" opacity="1" fill-opacity="0" stroke="#ffffff" stroke-width="3" stroke-opacity="1"></use></g></g><g><use xlink:href="#a29NQVm1yp" opacity="1" fill="url(#gradienta2QYKMwlr1)"></use><g><use xlink:href="#a29NQVm1yp" opacity="1" fill-opacity="0" stroke="#fffcfc" stroke-width="3" stroke-opacity="1"></use></g></g><g><use xlink:href="#a1d7LkWbb6" opacity="1" fill="url(#gradientbTawVlsP7)"></use><g><use xlink:href="#a1d7LkWbb6" opacity="1" fill-opacity="0" stroke="#fffbfb" stroke-width="3" stroke-opacity="1"></use></g></g><g><use xlink:href="#d3rNe0X7YK" opacity="1" fill="url(#gradienti3fLzwCuH6)"></use><g><use xlink:href="#d3rNe0X7YK" opacity="1" fill-opacity="0" stroke="#fffbfb" stroke-width="3" stroke-opacity="1"></use></g></g></g></g></svg>